<svg xmlns="http://www.w3.org/2000/svg" width="43.57" height="43.57" viewBox="0 0 43.57 43.57"><defs><style>.a,.b{fill:none;}.b{stroke:#f4dbd4;stroke-linecap:round;stroke-linejoin:round;stroke-width:3.5px;}</style></defs><path class="a" d="M0,0H43.57V43.57H0Z" transform="translate(0)"/><path class="b" d="M14.892,6.631a3.631,3.631,0,1,1,7.262,0,12.708,12.708,0,0,1,7.262,10.892v5.446a7.262,7.262,0,0,0,3.631,5.446H4a7.262,7.262,0,0,0,3.631-5.446V17.523A12.708,12.708,0,0,1,14.892,6.631" transform="translate(3.262 2.446)"/><path class="b" d="M9,17v1.815a5.446,5.446,0,1,0,10.892,0V17" transform="translate(7.339 13.862)"/></svg>