<svg xmlns="http://www.w3.org/2000/svg" width="43.947" height="43.947" viewBox="0 0 43.947 43.947"><defs><style>.a,.b{fill:none;}.b{stroke:#f4dbd4;stroke-linecap:round;stroke-linejoin:round;stroke-width:3.5px;}</style></defs><g transform="translate(0 0)"><path class="a" d="M0,0H43.947V43.947H0Z" transform="translate(0 0)"/><path class="b" d="M16.413,5.412a3.156,3.156,0,0,1,6.134,0,3.157,3.157,0,0,0,4.711,1.952A3.158,3.158,0,0,1,31.6,11.7a3.157,3.157,0,0,0,1.95,4.71,3.156,3.156,0,0,1,0,6.134A3.157,3.157,0,0,0,31.6,27.259a3.158,3.158,0,0,1-4.34,4.34,3.157,3.157,0,0,0-4.71,1.95,3.156,3.156,0,0,1-6.134,0A3.157,3.157,0,0,0,11.7,31.6a3.158,3.158,0,0,1-4.34-4.34,3.157,3.157,0,0,0-1.95-4.71,3.156,3.156,0,0,1,0-6.134A3.157,3.157,0,0,0,7.364,11.7a3.158,3.158,0,0,1,4.34-4.34,3.154,3.154,0,0,0,4.71-1.95Z" transform="translate(2.493 2.493)"/><ellipse class="b" cx="5.675" cy="5.27" rx="5.675" ry="5.27" transform="translate(16.214 16.618)"/></g></svg>