<svg xmlns="http://www.w3.org/2000/svg" width="52.592" height="42.976" viewBox="0 0 52.592 42.976"><defs><style>.a{fill:#ff7f5c;}</style></defs><g transform="translate(0 -4.017)"><g transform="translate(0 4.017)"><path class="a" d="M48.238,45.239V26.821a.877.877,0,0,0-.877-.877H38.591a.877.877,0,0,0-.877.877V45.239H35.96V11.911h11.4a.877.877,0,0,0,.877-.877V4.894a.877.877,0,0,0-.877-.877H.877A.877.877,0,0,0,0,4.894v6.139a.877.877,0,0,0,.877.877H5.262V45.239H.877v1.754H52.592V45.239ZM39.468,27.7h7.017v6.139H39.468ZM1.754,10.156V5.771h44.73v4.385H1.754Zm5.262,1.754H34.205V45.239H29.82v-1.25a4.366,4.366,0,0,0,1.269-7.174l1.662-.831-.785-1.569-1.269.635V33.837a3.516,3.516,0,0,0-3.516-3.508H14.041a3.516,3.516,0,0,0-3.516,3.508v1.212l-1.269-.635-.784,1.569,1.662.831A4.365,4.365,0,0,0,11.4,43.989v1.25H7.017Zm5.262,23.681V33.837a1.76,1.76,0,0,1,1.762-1.754h13.14a1.76,1.76,0,0,1,1.762,1.754v1.754H12.279Zm.88,1.754h14.9a2.631,2.631,0,1,1,0,5.262h-14.9a2.631,2.631,0,1,1,0-5.262Zm0,7.017H28.066v.877H13.156v-.877Zm26.309.877V35.591h7.017v9.648Z" transform="translate(0 -4.017)"/><rect class="a" width="2.364" height="3.546" transform="translate(17.73 31.156)"/><rect class="a" width="2.364" height="3.546" transform="translate(35.459 31.156)"/></g></g></svg>